<mxfile host="app.diagrams.net" agent="Mozilla/5.0 (Windows NT 10.0; Win64; x64) AppleWebKit/537.36 (KHTML, like Gecko) Chrome/127.0.0.0 Safari/537.36" version="24.7.7" pages="2">
  <diagram name="Power" id="zQ0u3U_UyeibHjYsIe1Y">
    <mxGraphModel dx="1434" dy="738" grid="0" gridSize="10" guides="1" tooltips="1" connect="1" arrows="1" fold="1" page="0" pageScale="1" pageWidth="827" pageHeight="1169" math="0" shadow="0">
      <root>
        <mxCell id="0" />
        <mxCell id="1" parent="0" />
        <mxCell id="SEutuBKjx1SZWyUBN6iv-1" value="" style="rounded=1;whiteSpace=wrap;html=1;strokeWidth=2;dashed=1;fillColor=#f5f5f5;fontColor=#333333;strokeColor=#666666;labelPosition=right;verticalLabelPosition=middle;align=left;verticalAlign=middle;arcSize=8;" parent="1" vertex="1">
          <mxGeometry x="254" y="238" width="312" height="116" as="geometry" />
        </mxCell>
        <mxCell id="wx5jg7viQjPzECAB1LZn-4" value="" style="edgeStyle=orthogonalEdgeStyle;rounded=0;orthogonalLoop=1;jettySize=auto;html=1;" parent="1" source="wx5jg7viQjPzECAB1LZn-2" target="wx5jg7viQjPzECAB1LZn-3" edge="1">
          <mxGeometry relative="1" as="geometry" />
        </mxCell>
        <mxCell id="wx5jg7viQjPzECAB1LZn-2" value="Constitution&lt;div&gt;of Japan&lt;/div&gt;" style="ellipse;whiteSpace=wrap;html=1;strokeWidth=2;" parent="1" vertex="1">
          <mxGeometry x="370" y="101" width="81" height="41" as="geometry" />
        </mxCell>
        <mxCell id="SEutuBKjx1SZWyUBN6iv-2" style="edgeStyle=orthogonalEdgeStyle;rounded=0;orthogonalLoop=1;jettySize=auto;html=1;entryX=0.5;entryY=0;entryDx=0;entryDy=0;" parent="1" source="wx5jg7viQjPzECAB1LZn-3" target="SEutuBKjx1SZWyUBN6iv-1" edge="1">
          <mxGeometry relative="1" as="geometry" />
        </mxCell>
        <mxCell id="wx5jg7viQjPzECAB1LZn-3" value="The Diet" style="rounded=1;whiteSpace=wrap;html=1;strokeWidth=2;" parent="1" vertex="1">
          <mxGeometry x="379" y="172" width="63" height="26" as="geometry" />
        </mxCell>
        <mxCell id="wx5jg7viQjPzECAB1LZn-14" style="edgeStyle=orthogonalEdgeStyle;rounded=0;orthogonalLoop=1;jettySize=auto;html=1;entryX=0.5;entryY=0;entryDx=0;entryDy=0;" parent="1" source="wx5jg7viQjPzECAB1LZn-5" target="wx5jg7viQjPzECAB1LZn-9" edge="1">
          <mxGeometry relative="1" as="geometry">
            <Array as="points">
              <mxPoint x="411" y="292" />
              <mxPoint x="299" y="292" />
            </Array>
          </mxGeometry>
        </mxCell>
        <mxCell id="wx5jg7viQjPzECAB1LZn-15" style="edgeStyle=orthogonalEdgeStyle;rounded=0;orthogonalLoop=1;jettySize=auto;html=1;entryX=0.5;entryY=0;entryDx=0;entryDy=0;" parent="1" source="wx5jg7viQjPzECAB1LZn-5" target="wx5jg7viQjPzECAB1LZn-11" edge="1">
          <mxGeometry relative="1" as="geometry">
            <Array as="points">
              <mxPoint x="411" y="292" />
              <mxPoint x="374" y="292" />
            </Array>
          </mxGeometry>
        </mxCell>
        <mxCell id="wx5jg7viQjPzECAB1LZn-16" style="edgeStyle=orthogonalEdgeStyle;rounded=0;orthogonalLoop=1;jettySize=auto;html=1;entryX=0.5;entryY=0;entryDx=0;entryDy=0;" parent="1" source="wx5jg7viQjPzECAB1LZn-5" target="wx5jg7viQjPzECAB1LZn-12" edge="1">
          <mxGeometry relative="1" as="geometry">
            <Array as="points">
              <mxPoint x="411" y="292" />
              <mxPoint x="448" y="292" />
            </Array>
          </mxGeometry>
        </mxCell>
        <mxCell id="wx5jg7viQjPzECAB1LZn-17" style="edgeStyle=orthogonalEdgeStyle;rounded=0;orthogonalLoop=1;jettySize=auto;html=1;" parent="1" source="wx5jg7viQjPzECAB1LZn-5" target="wx5jg7viQjPzECAB1LZn-13" edge="1">
          <mxGeometry relative="1" as="geometry">
            <Array as="points">
              <mxPoint x="411" y="292" />
              <mxPoint x="523" y="292" />
            </Array>
          </mxGeometry>
        </mxCell>
        <mxCell id="wx5jg7viQjPzECAB1LZn-5" value="Prime Minister" style="whiteSpace=wrap;html=1;rounded=1;strokeWidth=2;" parent="1" vertex="1">
          <mxGeometry x="363" y="246" width="95" height="26" as="geometry" />
        </mxCell>
        <mxCell id="SEutuBKjx1SZWyUBN6iv-7" style="edgeStyle=orthogonalEdgeStyle;rounded=0;orthogonalLoop=1;jettySize=auto;html=1;" parent="1" source="wx5jg7viQjPzECAB1LZn-9" target="SEutuBKjx1SZWyUBN6iv-3" edge="1">
          <mxGeometry relative="1" as="geometry" />
        </mxCell>
        <mxCell id="wx5jg7viQjPzECAB1LZn-9" value="Minister" style="whiteSpace=wrap;html=1;rounded=1;strokeWidth=2;" parent="1" vertex="1">
          <mxGeometry x="268.5" y="319" width="60" height="26" as="geometry" />
        </mxCell>
        <mxCell id="SEutuBKjx1SZWyUBN6iv-8" style="edgeStyle=orthogonalEdgeStyle;rounded=0;orthogonalLoop=1;jettySize=auto;html=1;entryX=0.5;entryY=0;entryDx=0;entryDy=0;" parent="1" source="wx5jg7viQjPzECAB1LZn-11" target="SEutuBKjx1SZWyUBN6iv-4" edge="1">
          <mxGeometry relative="1" as="geometry" />
        </mxCell>
        <mxCell id="wx5jg7viQjPzECAB1LZn-11" value="Minister" style="whiteSpace=wrap;html=1;rounded=1;strokeWidth=2;" parent="1" vertex="1">
          <mxGeometry x="343.5" y="319" width="60" height="26" as="geometry" />
        </mxCell>
        <mxCell id="SEutuBKjx1SZWyUBN6iv-9" style="edgeStyle=orthogonalEdgeStyle;rounded=0;orthogonalLoop=1;jettySize=auto;html=1;" parent="1" source="wx5jg7viQjPzECAB1LZn-12" target="SEutuBKjx1SZWyUBN6iv-5" edge="1">
          <mxGeometry relative="1" as="geometry" />
        </mxCell>
        <mxCell id="wx5jg7viQjPzECAB1LZn-12" value="Minister" style="whiteSpace=wrap;html=1;rounded=1;strokeWidth=2;" parent="1" vertex="1">
          <mxGeometry x="417.5" y="319" width="60" height="26" as="geometry" />
        </mxCell>
        <mxCell id="SEutuBKjx1SZWyUBN6iv-10" style="edgeStyle=orthogonalEdgeStyle;rounded=0;orthogonalLoop=1;jettySize=auto;html=1;entryX=0.5;entryY=0;entryDx=0;entryDy=0;" parent="1" source="wx5jg7viQjPzECAB1LZn-13" target="SEutuBKjx1SZWyUBN6iv-6" edge="1">
          <mxGeometry relative="1" as="geometry" />
        </mxCell>
        <mxCell id="wx5jg7viQjPzECAB1LZn-13" value="Minister" style="whiteSpace=wrap;html=1;rounded=1;strokeWidth=2;" parent="1" vertex="1">
          <mxGeometry x="492.5" y="319" width="60" height="26" as="geometry" />
        </mxCell>
        <mxCell id="SEutuBKjx1SZWyUBN6iv-3" value="Ministry" style="whiteSpace=wrap;html=1;rounded=1;strokeWidth=2;" parent="1" vertex="1">
          <mxGeometry x="268.5" y="383" width="60" height="26" as="geometry" />
        </mxCell>
        <mxCell id="SEutuBKjx1SZWyUBN6iv-4" value="Ministry" style="whiteSpace=wrap;html=1;rounded=1;strokeWidth=2;" parent="1" vertex="1">
          <mxGeometry x="343.5" y="383" width="60" height="26" as="geometry" />
        </mxCell>
        <mxCell id="SEutuBKjx1SZWyUBN6iv-5" value="Ministry" style="whiteSpace=wrap;html=1;rounded=1;strokeWidth=2;" parent="1" vertex="1">
          <mxGeometry x="417.5" y="383" width="60" height="26" as="geometry" />
        </mxCell>
        <mxCell id="SEutuBKjx1SZWyUBN6iv-6" value="Ministry" style="whiteSpace=wrap;html=1;rounded=1;strokeWidth=2;" parent="1" vertex="1">
          <mxGeometry x="492.5" y="383" width="60" height="26" as="geometry" />
        </mxCell>
        <mxCell id="SEutuBKjx1SZWyUBN6iv-11" value="Cabinent" style="text;html=1;align=center;verticalAlign=middle;whiteSpace=wrap;rounded=0;" parent="1" vertex="1">
          <mxGeometry x="268.5" y="208" width="60" height="30" as="geometry" />
        </mxCell>
      </root>
    </mxGraphModel>
  </diagram>
  <diagram id="WbGb7IFQuX0Ibv1x1TPu" name="ページ2">
    <mxGraphModel dx="1434" dy="738" grid="0" gridSize="10" guides="1" tooltips="1" connect="1" arrows="1" fold="1" page="0" pageScale="1" pageWidth="827" pageHeight="1169" math="0" shadow="0">
      <root>
        <mxCell id="0" />
        <mxCell id="1" parent="0" />
      </root>
    </mxGraphModel>
  </diagram>
</mxfile>
